<?xml version="1.0" encoding="iso-8859-1"?>
<!-- Generator: Adobe Illustrator 19.0.0, SVG Export Plug-In . SVG Version: 6.00 Build 0)  -->
<svg xmlns="http://www.w3.org/2000/svg" xmlns:xlink="http://www.w3.org/1999/xlink" version="1.1" id="Capa_1" x="0px" y="0px" viewBox="0 0 480.251 480.251" style="enable-background:new 0 0 480.251 480.251;" xml:space="preserve" width="26px" height="26px">
<g>
	<g>
		<path d="M285.71,194.477c-3.1-2.994-8.015-2.994-11.116,0l-12.32,12.32c-18.477-12.23-43.37-7.165-55.599,11.312    c-12.23,18.477-7.165,43.37,11.312,55.599s43.37,7.165,55.599-11.312c8.886-13.425,8.886-30.862,0-44.287l12.32-12.32    C288.976,202.611,288.888,197.546,285.71,194.477z M240.251,264.133c-13.255,0-24-10.745-24-24s10.745-24,24-24s24,10.745,24,24    S253.506,264.133,240.251,264.133z" fill="#0035dd"/>
	</g>
</g>
<g>
	<g>
		<path d="M101.907,250.477l-24-24c-3.178-3.069-8.243-2.981-11.312,0.197c-2.994,3.1-2.994,8.015,0,11.115l24,24    c3.178,3.069,8.242,2.982,11.312-0.196C104.901,258.492,104.901,253.577,101.907,250.477z" fill="#0035dd"/>
	</g>
</g>
<g>
	<g>
		<path d="M384.251,160.133c-15.908,0.005-31.562,3.99-45.536,11.592c-37.642-54.38-112.241-67.949-166.621-30.307    c-11.843,8.198-22.109,18.464-30.307,30.307c-46.606-25.277-104.879-7.987-130.156,38.619S3.644,315.222,50.25,340.5    c35.282,19.136,78.745,14.302,108.961-12.119c45.733,42.335,116.347,42.335,162.08,0c17.381,15.342,39.777,23.79,62.96,23.752    c53.019,0,96-42.981,96-96S437.27,160.133,384.251,160.133z M96.251,336.133c-44.163-0.049-79.951-35.837-80-80    c-0.059-44.125,35.664-79.944,79.789-80.002c13.077-0.017,25.959,3.175,37.515,9.298c-0.072,0.136-0.112,0.288-0.184,0.424    c-1.929,3.799-3.654,7.698-5.168,11.68c-0.264,0.696-0.512,1.4-0.8,2.096l-0.24,0.656c-30.881-17.096-69.774-5.922-86.871,24.959    c-13.801,24.929-9.433,55.983,10.711,76.137c3.178,3.069,8.242,2.982,11.312-0.196c2.994-3.1,2.994-8.015,0-11.116    c-18.755-18.698-18.801-49.059-0.103-67.814c16.12-16.169,41.404-18.73,60.439-6.122c-0.504,2.488-0.8,5.04-1.16,7.576    c-0.136,0.976-0.336,1.944-0.448,2.92c-0.515,4.483-0.779,8.991-0.792,13.504c0,3.84,0.216,7.656,0.576,11.44    c0.128,1.304,0.344,2.576,0.512,3.872c0.312,2.448,0.656,4.888,1.12,7.296c0.288,1.512,0.648,2.992,0.992,4.48    c0.496,2.144,1.032,4.272,1.64,6.4c0.456,1.544,0.944,3.072,1.448,4.592c0.672,1.984,1.392,3.944,2.168,5.896    c0.608,1.536,1.216,3.064,1.888,4.568c0.8,1.824,1.696,3.616,2.608,5.4c0.8,1.544,1.544,3.096,2.4,4.6    c0.856,1.504,1.88,3.12,2.84,4.672c0.96,1.552,1.976,3.24,3.056,4.8c0.8,1.136,1.664,2.216,2.496,3.328    c1.36,1.84,2.688,3.696,4.152,5.456C133.722,329.369,115.296,336.187,96.251,336.133z M329.115,293.861    c-0.6,1-1.176,2.016-1.816,2.992c-1.28,1.952-2.672,3.848-4.096,5.728c-0.552,0.728-1.072,1.48-1.64,2.2    c-1.6,1.992-3.296,3.92-5.048,5.808c-0.736,0.8-1.432,1.64-2.192,2.4l-0.8,0.848c-40.505,40.382-106.046,40.384-146.554,0.006    l-0.798-0.846c-0.8-0.8-1.456-1.6-2.192-2.4c-1.752-1.888-3.456-3.816-5.048-5.808c-0.568-0.72-1.088-1.472-1.6-2.2    c-1.424-1.88-2.816-3.776-4.096-5.728c-0.64-0.976-1.216-1.992-1.816-2.992c-1.088-1.792-2.176-3.592-3.152-5.44    c-0.648-1.224-1.208-2.496-1.808-3.752c-0.8-1.704-1.648-3.408-2.4-5.16c-0.592-1.44-1.088-2.936-1.6-4.408    c-0.592-1.6-1.208-3.272-1.72-4.944c-0.512-1.672-0.88-3.368-1.304-5.064c-0.384-1.544-0.8-3.08-1.128-4.648    c-0.4-2.008-0.656-4.064-0.936-6.104c-0.184-1.312-0.44-2.6-0.568-3.912c-0.368-3.408-0.552-6.832-0.552-10.304    c0-3.104,0.2-6.168,0.464-9.2c0.088-0.968,0.184-1.936,0.304-2.904c0.264-2.272,0.616-4.52,1.032-6.744    c0.312-1.704,0.68-3.384,1.088-5.072c0.408-1.688,0.8-3.2,1.216-4.72s0.976-3.2,1.528-4.8c0.312-0.92,0.664-1.832,1-2.744    c1.315-3.533,2.821-6.991,4.512-10.36c0.136-0.272,0.256-0.552,0.4-0.8c0.904-1.76,1.88-3.48,2.888-5.192    c28.894-49.467,92.418-66.145,141.885-37.251c15.416,9.004,28.247,21.835,37.251,37.251c1.008,1.712,1.984,3.432,2.888,5.192    c0.144,0.272,0.264,0.552,0.4,0.8c1.683,3.366,3.187,6.819,4.504,10.344c0.344,0.92,0.696,1.84,1.016,2.768    c0.544,1.6,1.056,3.2,1.52,4.8c0.464,1.6,0.8,3.136,1.216,4.72c0.416,1.584,0.8,3.368,1.088,5.072    c0.416,2.224,0.8,4.472,1.032,6.752c0.12,0.96,0.216,1.92,0.304,2.888c0.264,3.04,0.464,6.096,0.464,9.208    c0,3.472-0.184,6.896-0.52,10.288c-0.128,1.312-0.384,2.6-0.568,3.912c-0.28,2.04-0.536,4.096-0.936,6.104    c-0.312,1.6-0.744,3.104-1.128,4.648c-0.424,1.696-0.8,3.408-1.304,5.064c-0.504,1.656-1.128,3.304-1.72,4.944    c-0.528,1.472-1.024,2.968-1.6,4.408c-0.72,1.752-1.552,3.456-2.4,5.16c-0.6,1.256-1.16,2.528-1.808,3.752    C331.291,290.269,330.203,292.069,329.115,293.861z M421.757,326.837c-11.555,6.117-24.432,9.308-37.506,9.296    c-19.04,0.05-37.46-6.767-51.88-19.2c1.464-1.76,2.792-3.616,4.152-5.456c0.8-1.112,1.712-2.192,2.496-3.328    c1.072-1.6,2.048-3.2,3.048-4.8s1.952-3.096,2.848-4.688s1.6-3.048,2.4-4.592c0.904-1.784,1.792-3.568,2.608-5.392    c0.672-1.512,1.288-3.04,1.896-4.584c0.768-1.947,1.488-3.909,2.16-5.888c0.504-1.52,0.992-3.04,1.448-4.592    c0.608-2.112,1.144-4.248,1.6-6.4c0.344-1.488,0.704-2.96,0.992-4.464c0.464-2.4,0.8-4.864,1.12-7.312    c0.168-1.288,0.384-2.56,0.512-3.864c0.36-3.784,0.576-7.6,0.576-11.44c-0.016-4.51-0.283-9.016-0.8-13.496    c-0.112-0.976-0.312-1.944-0.448-2.92c-0.352-2.536-0.656-5.088-1.16-7.576c22.098-14.604,51.851-8.528,66.454,13.57    c12.565,19.014,10.014,44.244-6.102,60.358c-3.178,3.07-3.266,8.134-0.196,11.312c3.07,3.178,8.134,3.266,11.312,0.196    c0.066-0.064,0.132-0.13,0.196-0.196c25.053-24.84,25.225-65.286,0.385-90.339c-20.21-20.383-51.533-24.783-76.577-10.757    l-0.24-0.656c-0.256-0.704-0.504-1.4-0.8-2.088c-1.514-3.987-3.239-7.892-5.168-11.696c-0.072-0.136-0.112-0.28-0.184-0.416    c39.049-20.672,87.462-5.774,108.133,33.275C475.703,257.752,460.806,306.165,421.757,326.837z" fill="#0035dd"/>
	</g>
</g>
<g>
	<g>
		<path d="M240.254,152.13c-48.601-0.002-88.001,39.396-88.003,87.997c-0.001,23.341,9.271,45.726,25.776,62.23    c3.07,3.178,8.134,3.266,11.312,0.196s3.266-8.134,0.196-11.312c-0.064-0.067-0.13-0.132-0.196-0.196    c-28.118-28.118-28.117-73.706,0.001-101.823c28.118-28.118,73.706-28.117,101.823,0.001c28.117,28.118,28.117,73.705,0,101.823    c-3.178,3.07-3.266,8.134-0.196,11.312c3.07,3.178,8.134,3.266,11.312,0.196c0.066-0.064,0.132-0.13,0.196-0.196    c16.556-16.468,25.837-38.873,25.776-62.224C328.252,191.531,288.855,152.131,240.254,152.13z" fill="#0035dd"/>
	</g>
</g>
<g>
	<g>
		<path d="M416.251,248.133h-32c-4.418,0-8,3.582-8,8c0,4.418,3.582,8,8,8h32c4.418,0,8-3.582,8-8    C424.251,251.714,420.669,248.133,416.251,248.133z" fill="#0035dd"/>
	</g>
</g>
<g>
</g>
<g>
</g>
<g>
</g>
<g>
</g>
<g>
</g>
<g>
</g>
<g>
</g>
<g>
</g>
<g>
</g>
<g>
</g>
<g>
</g>
<g>
</g>
<g>
</g>
<g>
</g>
<g>
</g>
</svg>
