<?xml version="1.0" encoding="utf-8"?>
<!-- Generator: Adobe Illustrator 19.2.0, SVG Export Plug-In . SVG Version: 6.00 Build 0)  -->
<svg version="1.1" id="Layer_1" xmlns="http://www.w3.org/2000/svg" xmlns:xlink="http://www.w3.org/1999/xlink" x="0px" y="0px" width="250px" height="80px"
	 viewBox="0 0 261.9 27.8" style="enable-background:new 0 0 261.9 27.8;" xml:space="preserve">
<style type="text/css">
	.st0{fill:#A9A8A8;}
	.st1{fill:#FFFFFF;}
</style>
<path class="st0" d="M36.3,6.2c0.4,0,0.8,0.3,0.8,0.8v0.8c0,1.2-1.4,1.5-2.5,1.5l-1.7-3.1H36.3z M34,11.6c1,1.8,1.5,3.5,1.5,5.7
	c0,2.1-0.6,3.9-1.6,6.1v2.9c0,0.9-0.7,1.5-1.5,1.5h-2.3c-0.9,0-1.5-0.7-1.5-1.5v-1.5H8.5v1.5c0,0.9-0.7,1.5-1.5,1.5H4.6
	c-0.9,0-1.5-0.7-1.5-1.5v-2.9c-0.9-2.2-1.6-4-1.6-6.1c0-2.2,0.5-3.8,1.5-5.7c1.3-2.4,2.9-5.3,4.5-8.1C8.8,1.3,9.5,0.8,11,0.6
	C13.4,0.1,15.5,0,18.5,0s5.1,0.1,7.5,0.6c1.6,0.3,2.2,0.8,3.5,2.9C31.2,6.3,32.8,9.2,34,11.6z M9.3,16.2c0-1.3-1-2.3-2.3-2.3
	s-2.3,1-2.3,2.3s1,2.3,2.3,2.3S9.3,17.5,9.3,16.2z M24.7,17.7c0-0.4-0.3-0.8-0.8-0.8H13.1c-0.4,0-0.8,0.3-0.8,0.8s0.3,0.8,0.8,0.8
	h10.8C24.3,18.5,24.7,18.2,24.7,17.7z M29.2,9.2c0,0-1.1-2.8-2.5-4.8c-0.3-0.5-0.8-0.8-1.3-0.9C23,3.1,21,2.9,18.5,2.9
	S14,3.1,11.7,3.5c-0.5,0.1-1,0.4-1.3,0.9c-1.4,2-2.5,4.8-2.5,4.8c2.5,0.5,6.7,0.8,10.7,0.8S26.7,9.7,29.2,9.2z M32.4,16.2
	c0-1.3-1-2.3-2.3-2.3c-1.3,0-2.3,1-2.3,2.3s1,2.3,2.3,2.3C31.4,18.5,32.4,17.5,32.4,16.2z M4.2,6.2H0.8C0.3,6.2,0,6.5,0,6.9v0.8
	C0,9,1.4,9.3,2.5,9.3L4.2,6.2z"/>
<g>
	<path class="st1" d="M60,21.5H49.3l-2,4.9h-5.5L52,3.5h5.3l10.3,23H62L60,21.5z M58.3,17.5l-3.6-8.8L51,17.5H58.3z"/>
	<path class="st1" d="M69.3,16.4V3.5h5.3v12.7c0,4.4,1.9,6.2,5.1,6.2c3.3,0,5.1-1.8,5.1-6.2V3.5h5.3v12.9c0,6.8-3.9,10.5-10.4,10.5
		C73.2,26.9,69.3,23.1,69.3,16.4z"/>
	<path class="st1" d="M99.8,7.8h-7.4V3.5h20.1v4.3h-7.4v18.7h-5.3V7.8z"/>
	<path class="st1" d="M113.6,15c0-6.8,5.3-11.9,12.6-11.9c7.2,0,12.6,5,12.6,11.9c0,6.9-5.4,11.9-12.6,11.9
		C118.9,26.9,113.6,21.8,113.6,15z M133.4,15c0-4.4-3.1-7.4-7.2-7.4s-7.2,3-7.2,7.4c0,4.4,3.1,7.4,7.2,7.4S133.4,19.3,133.4,15z"/>
</g>
<g>
	<path class="st0" d="M151.2,7.7h-7.4V3.4h20.1v4.3h-7.4v18.7h-5.3V7.7z"/>
	<path class="st0" d="M181.5,26.4L177,20h-0.3h-4.6v6.4h-5.3v-23h10c6.1,0,10,3.2,10,8.4c0,3.5-1.7,6-4.7,7.3l5.2,7.4H181.5z
		 M176.5,7.7h-4.3v8h4.3c3.3,0,4.9-1.5,4.9-4C181.4,9.2,179.7,7.7,176.5,7.7z"/>
	<path class="st0" d="M206.1,21.4h-10.7l-2,4.9h-5.5l10.3-23h5.3l10.3,23h-5.6L206.1,21.4z M204.4,17.4l-3.7-8.8l-3.7,8.8H204.4z"/>
	<path class="st0" d="M214.4,14.9c0-6.9,5.3-11.9,12.5-11.9c4,0,7.3,1.4,9.5,4.1l-3.4,3.2c-1.5-1.8-3.5-2.7-5.8-2.7
		c-4.3,0-7.4,3-7.4,7.4c0,4.3,3.1,7.4,7.4,7.4c2.3,0,4.2-0.9,5.8-2.7l3.4,3.2c-2.2,2.7-5.5,4.1-9.5,4.1
		C219.7,26.8,214.4,21.8,214.4,14.9z"/>
	<path class="st0" d="M248.3,17.3l-3.1,3.2v5.8h-5.3v-23h5.3v10.8l10.2-10.8h5.9l-9.5,10.3l10.1,12.8h-6.2L248.3,17.3z"/>
</g>
</svg>
